<svg
  width="52"
  height="68"
  viewBox="0 0 52 68"
  fill="none"
  xmlns="http://www.w3.org/2000/svg"
>
  <mask
    id="path-1-outside-1_33_15"
    maskUnits="userSpaceOnUse"
    x="0"
    y="0"
    width="52"
    height="68"
    fill="black"
  >
    <rect fill="white" width="52" height="68" />
    <path
      fill-rule="evenodd"
      clip-rule="evenodd"
      d="M3.55266 16.6809C-4.09984 33.7684 18.7141 59.2192 24.6345 65.4103C25.3863 66.1965 26.6137 66.1965 27.3655 65.4103C33.2859 59.2192 56.0998 33.7684 48.4473 16.6809C39.6811 -2.89362 12.3189 -2.89362 3.55266 16.6809ZM26 35.4148C31.5228 35.4148 36 30.8814 36 25.2891C36 19.6969 31.5228 15.1634 26 15.1634C20.4772 15.1634 16 19.6969 16 25.2891C16 30.8814 20.4772 35.4148 26 35.4148Z"
    />
  </mask>
  <path
    fill-rule="evenodd"
    clip-rule="evenodd"
    d="M3.55266 16.6809C-4.09984 33.7684 18.7141 59.2192 24.6345 65.4103C25.3863 66.1965 26.6137 66.1965 27.3655 65.4103C33.2859 59.2192 56.0998 33.7684 48.4473 16.6809C39.6811 -2.89362 12.3189 -2.89362 3.55266 16.6809ZM26 35.4148C31.5228 35.4148 36 30.8814 36 25.2891C36 19.6969 31.5228 15.1634 26 15.1634C20.4772 15.1634 16 19.6969 16 25.2891C16 30.8814 20.4772 35.4148 26 35.4148Z"
    fill="#EDC401"
  />
  <path
    d="M3.55266 16.6809L1.72734 15.8634L1.72734 15.8634L3.55266 16.6809ZM48.4473 16.6809L50.2727 15.8634L50.2727 15.8634L48.4473 16.6809ZM24.6345 65.4103L23.1891 66.7926L24.6345 65.4103ZM27.3655 65.4103L25.92 64.028L27.3655 65.4103ZM26.08 64.028C23.1583 60.9728 16.0968 53.1912 10.7249 44.1132C8.03917 39.5745 5.82409 34.7914 4.73207 30.1728C3.64094 25.558 3.70071 21.2435 5.37797 17.4983L1.72734 15.8634C-0.421639 20.662 -0.379819 25.9367 0.839402 31.0932C2.05774 36.246 4.48131 41.4165 7.2825 46.1503C12.8846 55.6173 20.1903 63.6567 23.1891 66.7926L26.08 64.028ZM46.622 17.4983C48.2993 21.2435 48.3591 25.558 47.2679 30.1728C46.1759 34.7914 43.9608 39.5745 41.2751 44.1132C35.9032 53.1912 28.8417 60.9728 25.92 64.028L28.8109 66.7926C31.8097 63.6567 39.1154 55.6173 44.7175 46.1503C47.5187 41.4165 49.9423 36.246 51.1606 31.0932C52.3798 25.9367 52.4216 20.662 50.2727 15.8634L46.622 17.4983ZM5.37797 17.4983C13.4381 -0.499437 38.5619 -0.499437 46.622 17.4983L50.2727 15.8634C40.8003 -5.2878 11.1997 -5.2878 1.72734 15.8634L5.37797 17.4983ZM34 25.2891C34 29.8004 30.3948 33.4148 26 33.4148V37.4148C32.6509 37.4148 38 31.9623 38 25.2891H34ZM26 17.1634C30.3948 17.1634 34 20.7778 34 25.2891H38C38 18.6159 32.6509 13.1634 26 13.1634V17.1634ZM18 25.2891C18 20.7778 21.6052 17.1634 26 17.1634V13.1634C19.3491 13.1634 14 18.6159 14 25.2891H18ZM26 33.4148C21.6052 33.4148 18 29.8004 18 25.2891H14C14 31.9623 19.3491 37.4148 26 37.4148V33.4148ZM23.1891 66.7926C24.7285 68.4024 27.2715 68.4024 28.8109 66.7926L25.92 64.028C25.92 64.0281 25.9202 64.0279 25.9206 64.0275C25.921 64.0272 25.9215 64.0266 25.9222 64.026C25.9237 64.0248 25.9258 64.0231 25.9284 64.0213C25.9338 64.0176 25.9407 64.0137 25.9488 64.0103C25.965 64.0035 25.9825 63.9999 26 63.9999C26.0175 63.9999 26.035 64.0035 26.0512 64.0103C26.0593 64.0137 26.0662 64.0176 26.0716 64.0213C26.0742 64.0231 26.0763 64.0248 26.0778 64.026C26.0785 64.0266 26.079 64.0271 26.0794 64.0275C26.0798 64.0279 26.08 64.0281 26.08 64.028L23.1891 66.7926Z"
    fill="#111416"
    mask="url(#path-1-outside-1_33_15)"
  />
</svg>
