<svg
  width="78"
  height="88"
  viewBox="0 0 78 88"
  fill="none"
  xmlns="http://www.w3.org/2000/svg"
>
  <g filter="url(#filter0_d_5_45)">
    <path
      fill-rule="evenodd"
      clip-rule="evenodd"
      d="M51.8154 64.611C52.1514 64.275 52.5461 64.0038 52.9734 63.796C63.6447 58.6081 71 47.663 71 35C71 17.3269 56.6731 3 39 3C21.3269 3 7 17.3269 7 35C7 47.8505 14.5747 58.9319 25.5028 64.0227C25.9552 64.2334 26.3726 64.5147 26.7254 64.8675L38.435 76.5772C38.8256 76.9677 39.4587 76.9677 39.8492 76.5772L51.8154 64.611Z"
      fill="white"
    />
  </g>
  <circle cx="39" cy="35" r="28" fill="#10A88A" />
  <path
    fill-rule="evenodd"
    clip-rule="evenodd"
    d="M39 14C33.4772 14 29 18.4772 29 24H49C49 18.4772 44.5228 14 39 14ZM39 34C43.9706 34 48 29.9706 48 25H30C30 29.9706 34.0294 34 39 34ZM49 44V63H29V44H28V61H22V44C22 39.0294 26.0294 35 31 35H47C51.9706 35 56 39.0294 56 44V61H50V44H49Z"
    fill="white"
  />
  <circle cx="39" cy="35" r="27.5" stroke="#10A88A" />
  <defs>
    <filter
      id="filter0_d_5_45"
      x="0.6"
      y="0.6"
      width="76.8"
      height="86.6701"
      filterUnits="userSpaceOnUse"
      color-interpolation-filters="sRGB"
    >
      <feFlood flood-opacity="0" result="BackgroundImageFix" />
      <feColorMatrix
        in="SourceAlpha"
        type="matrix"
        values="0 0 0 0 0 0 0 0 0 0 0 0 0 0 0 0 0 0 127 0"
        result="hardAlpha"
      />
      <feOffset dy="4" />
      <feGaussianBlur stdDeviation="3.2" />
      <feComposite in2="hardAlpha" operator="out" />
      <feColorMatrix
        type="matrix"
        values="0 0 0 0 0.176471 0 0 0 0 0.235294 0 0 0 0 0.254902 0 0 0 1 0"
      />
      <feBlend
        mode="normal"
        in2="BackgroundImageFix"
        result="effect1_dropShadow_5_45"
      />
      <feBlend
        mode="normal"
        in="SourceGraphic"
        in2="effect1_dropShadow_5_45"
        result="shape"
      />
    </filter>
  </defs>
</svg>
